<svg width="40px" height="40px" xmlns="http://www.w3.org/2000/svg"
     viewBox="216.71000061035156 55.3800048828125 66.57999877929687 39.239990234375"
     style="background: rgba(0, 0, 0, 0) none repeat scroll 0% 0%;" preserveAspectRatio="xMidYMid">
    <defs>
        <filter id="editing-metal-beveled">
            <feGaussianBlur stdDeviation="4" in="SourceAlpha" result="blur"/>
            <feSpecularLighting surfaceScale="5" specularConstant="0.8" specularExponent="7.5" lighting-color="#fff"
                                in="blur" result="specular">
                <fePointLight x="-250" y="-50" z="300"/>
            </feSpecularLighting>
            <feComposite operator="in" in="specular" in2="SourceAlpha" result="comp"/>
            <feComposite in="SourceGraphic" in2="comp" operator="arithmetic" k1="0" k2="1" k3="1" k4="0"/>
        </filter>
    </defs>
    <g filter="url(#editing-metal-beveled)">
        <g transform="translate(233.64176535606384, 78.62500286102295)">
            <path d="M0.78 0L0.78-7L2.99-7L2.99-7Q3.81-7 4.28-6.58L4.28-6.58L4.28-6.58Q4.75-6.16 4.75-5.30L4.75-5.30L4.75-5.30Q4.75-4.91 4.62-4.56L4.62-4.56L4.62-4.56Q4.49-4.21 4.09-3.94L4.09-3.94L4.08-3.92L4.08-3.91L4.08-3.91Q4.52-3.71 4.82-3.26L4.82-3.26L4.82-3.26Q5.11-2.81 5.11-2.09L5.11-2.09L5.11-2.09Q5.11-1.23 4.65-0.61L4.65-0.61L4.65-0.61Q4.18 0 3.08 0L3.08 0L0.78 0ZM2.97-4.13L2.97-4.13Q3.53-4.13 3.85-4.43L3.85-4.43L3.85-4.43Q4.17-4.73 4.17-5.30L4.17-5.30L4.17-5.30Q4.17-6.47 2.91-6.47L2.91-6.47L1.34-6.47L1.34-4.13L2.97-4.13ZM3.06-0.53L3.06-0.53Q3.73-0.53 4.12-0.89L4.12-0.89L4.12-0.89Q4.51-1.25 4.51-2.13L4.51-2.13L4.51-2.13Q4.51-2.83 4.13-3.21L4.13-3.21L4.13-3.21Q3.75-3.58 3.23-3.58L3.23-3.58L1.34-3.58L1.34-0.53L3.06-0.53ZM9.66 0L9.66 0Q8.58 0.11 8.10 0.11L8.10 0.11L8.10 0.11Q7.05 0.11 6.43-0.28L6.43-0.28L6.43-0.28Q5.81-0.67 5.81-1.69L5.81-1.69L5.81-2.52L5.81-2.52Q5.81-3.51 6.50-3.85L6.50-3.85L6.50-3.85Q6.83-4.02 7.34-4.02L7.34-4.02L7.34-4.02Q7.81-4.02 8.29-3.87L8.29-3.87L8.29-3.87Q8.77-3.71 9.10-3.46L9.10-3.46L9.10-3.46Q9.10-4.01 8.78-4.33L8.78-4.33L8.78-4.33Q8.46-4.66 7.55-4.66L7.55-4.66L7.58-5.09L7.58-5.09Q8.54-5.09 9.00-4.79L9.00-4.79L9.00-4.79Q9.45-4.48 9.55-4.06L9.55-4.06L9.55-4.06Q9.66-3.64 9.66-2.98L9.66-2.98L9.66 0ZM9.10-3.03L9.10-3.03Q8.69-3.22 8.23-3.36L8.23-3.36L8.23-3.36Q7.76-3.50 7.37-3.50L7.37-3.50L7.37-3.50Q6.36-3.50 6.36-2.49L6.36-2.49L6.36-1.62L6.36-1.62Q6.36-0.97 6.81-0.68L6.81-0.68L6.81-0.68Q7.26-0.38 8.09-0.38L8.09-0.38L8.09-0.38Q8.52-0.38 9.10-0.46L9.10-0.46L9.10-3.03ZM10.91-1.27L10.91-1.27Q10.97-0.82 11.36-0.59L11.36-0.59L11.36-0.59Q11.75-0.37 12.23-0.37L12.23-0.37L12.23-0.37Q12.68-0.37 13.05-0.58L13.05-0.58L13.05-0.58Q13.42-0.78 13.42-1.24L13.42-1.24L13.42-1.24Q13.42-1.54 13.24-1.74L13.24-1.74L13.24-1.74Q13.07-1.93 12.81-2.05L12.81-2.05L12.81-2.05Q12.55-2.17 12.11-2.31L12.11-2.31L12.11-2.31Q11.62-2.47 11.31-2.61L11.31-2.61L11.31-2.61Q11-2.75 10.77-3.00L10.77-3.00L10.77-3.00Q10.54-3.26 10.50-3.65L10.50-3.65L10.49-3.77L10.49-3.77Q10.49-4.10 10.67-4.42L10.67-4.42L10.67-4.42Q10.86-4.73 11.24-4.93L11.24-4.93L11.24-4.93Q11.63-5.13 12.21-5.13L12.21-5.13L12.21-5.13Q12.53-5.13 12.77-5.07L12.77-5.07L12.77-5.07Q13.02-5 13.16-4.93L13.16-4.93L13.16-4.93Q13.30-4.86 13.33-4.84L13.33-4.84L13.14-4.38L13.14-4.38Q13.11-4.40 12.99-4.46L12.99-4.46L12.99-4.46Q12.88-4.52 12.67-4.58L12.67-4.58L12.67-4.58Q12.46-4.64 12.21-4.64L12.21-4.64L12.21-4.64Q11.73-4.64 11.39-4.42L11.39-4.42L11.39-4.42Q11.05-4.19 11.05-3.79L11.05-3.79L11.05-3.79Q11.05-3.41 11.36-3.21L11.36-3.21L11.36-3.21Q11.67-3.01 12.31-2.81L12.31-2.81L12.31-2.81Q12.85-2.63 13.18-2.47L13.18-2.47L13.18-2.47Q13.51-2.31 13.74-2.02L13.74-2.02L13.74-2.02Q13.98-1.72 13.98-1.25L13.98-1.25L13.98-1.25Q13.98-0.65 13.54-0.25L13.54-0.25L13.54-0.25Q13.09 0.15 12.23 0.15L12.23 0.15L12.23 0.15Q11.66 0.15 11.24-0.04L11.24-0.04L11.24-0.04Q10.83-0.24 10.62-0.56L10.62-0.56L10.62-0.56Q10.40-0.88 10.38-1.27L10.38-1.27L10.91-1.27ZM18.03-0.35L18.03-0.35Q17.67-0.12 17.21 0L17.21 0L17.21 0Q16.75 0.12 16.29 0.12L16.29 0.12L16.29 0.12Q15.55 0.12 15.12-0.24L15.12-0.24L15.12-0.24Q14.68-0.61 14.68-1.34L14.68-1.34L14.68-3.39L14.68-3.39Q14.68-4.20 15.19-4.65L15.19-4.65L15.19-4.65Q15.69-5.10 16.52-5.10L16.52-5.10L16.52-5.10Q17.35-5.10 17.82-4.66L17.82-4.66L17.82-4.66Q18.28-4.21 18.28-3.42L18.28-3.42L18.28-2.12L15.24-1.95L15.24-1.34L15.24-1.34Q15.24-0.86 15.55-0.62L15.55-0.62L15.55-0.62Q15.86-0.38 16.36-0.38L16.36-0.38L16.36-0.38Q17.06-0.38 17.81-0.78L17.81-0.78L18.03-0.35ZM17.72-3.49L17.72-3.49Q17.72-4.11 17.33-4.37L17.33-4.37L17.33-4.37Q16.94-4.62 16.51-4.62L16.51-4.62L16.51-4.62Q15.96-4.62 15.60-4.32L15.60-4.32L15.60-4.32Q15.24-4.02 15.24-3.38L15.24-3.38L15.24-2.50L17.72-2.62L17.72-3.49ZM19.45 0L19.45-7L20.01-7L20.01 0L19.45 0ZM21.93-6.43L21.93-6.43Q21.80-6.43 21.70-6.54L21.70-6.54L21.70-6.54Q21.59-6.64 21.59-6.77L21.59-6.77L21.59-6.77Q21.59-6.90 21.69-7L21.69-7L21.69-7Q21.79-7.10 21.93-7.10L21.93-7.10L21.93-7.10Q22.07-7.10 22.17-7.00L22.17-7.00L22.17-7.00Q22.26-6.91 22.26-6.77L22.26-6.77L22.26-6.77Q22.26-6.63 22.16-6.53L22.16-6.53L22.16-6.53Q22.06-6.43 21.93-6.43L21.93-6.43ZM21.64 0L21.64-5.01L22.20-5.01L22.20 0L21.64 0ZM26.84 0L26.84-3.43L26.84-3.43Q26.84-4.04 26.49-4.32L26.49-4.32L26.49-4.32Q26.13-4.59 25.57-4.59L25.57-4.59L25.57-4.59Q25.23-4.59 24.88-4.50L24.88-4.50L24.88-4.50Q24.53-4.40 24.26-4.25L24.26-4.25L24.26 0L23.70 0L23.70-5.01L24.26-5.01L24.22-4.67L24.22-4.67Q24.46-4.88 24.83-4.99L24.83-4.99L24.83-4.99Q25.20-5.09 25.60-5.09L25.60-5.09L25.60-5.09Q26.15-5.09 26.54-4.91L26.54-4.91L26.54-4.91Q26.94-4.73 27.17-4.37L27.17-4.37L27.17-4.37Q27.39-4.01 27.39-3.46L27.39-3.46L27.39 0L26.84 0ZM31.76-0.35L31.76-0.35Q31.40-0.12 30.94 0L30.94 0L30.94 0Q30.48 0.12 30.02 0.12L30.02 0.12L30.02 0.12Q29.28 0.12 28.85-0.24L28.85-0.24L28.85-0.24Q28.41-0.61 28.41-1.34L28.41-1.34L28.41-3.39L28.41-3.39Q28.41-4.20 28.92-4.65L28.92-4.65L28.92-4.65Q29.42-5.10 30.25-5.10L30.25-5.10L30.25-5.10Q31.08-5.10 31.55-4.66L31.55-4.66L31.55-4.66Q32.01-4.21 32.01-3.42L32.01-3.42L32.01-2.12L28.97-1.95L28.97-1.34L28.97-1.34Q28.97-0.86 29.28-0.62L29.28-0.62L29.28-0.62Q29.59-0.38 30.09-0.38L30.09-0.38L30.09-0.38Q30.79-0.38 31.54-0.78L31.54-0.78L31.76-0.35ZM31.45-3.49L31.45-3.49Q31.45-4.11 31.06-4.37L31.06-4.37L31.06-4.37Q30.67-4.62 30.24-4.62L30.24-4.62L30.24-4.62Q29.69-4.62 29.33-4.32L29.33-4.32L29.33-4.32Q28.97-4.02 28.97-3.38L28.97-3.38L28.97-2.50L31.45-2.62L31.45-3.49Z"
                  fill="#444"/>
        </g>
    </g>
    <style>text {
        font-size: 64px;
        font-family: Arial Black;
        dominant-baseline: central;
        text-anchor: middle;
        }
    </style>
</svg>
